<svg width="208" height="52" viewBox="0 0 208 52" fill="none" xmlns="http://www.w3.org/2000/svg">
<rect width="208" height="52" rx="7.10383" fill="#202020"/>
<path d="M41.6831 34V19.5423H36.0909V18.0874H48.9574V19.5423H43.3652V34H41.6831ZM55.1299 34.1137C53.8872 34.1137 52.796 33.856 51.8564 33.3408C50.9168 32.8103 50.1818 32.0905 49.6514 31.1812C49.121 30.2568 48.8558 29.2035 48.8558 28.0214C48.8558 26.8393 49.1058 25.7937 49.606 24.8844C50.1212 23.9751 50.8183 23.2628 51.6973 22.7475C52.5915 22.2171 53.5917 21.9519 54.698 21.9519C55.8194 21.9519 56.8121 22.2095 57.6759 22.7248C58.5549 23.2249 59.2444 23.9372 59.7445 24.8616C60.2446 25.7709 60.4947 26.8242 60.4947 28.0214C60.4947 28.0972 60.4871 28.1805 60.472 28.2715C60.472 28.3472 60.472 28.4306 60.472 28.5215H50.0833V27.3167H59.6081L58.9716 27.7941C58.9716 26.9303 58.7822 26.165 58.4033 25.4981C58.0396 24.8162 57.5395 24.2858 56.903 23.9069C56.2665 23.528 55.5315 23.3386 54.698 23.3386C53.8796 23.3386 53.1446 23.528 52.493 23.9069C51.8413 24.2858 51.3336 24.8162 50.9699 25.4981C50.6062 26.1801 50.4243 26.9606 50.4243 27.8396V28.0896C50.4243 28.9989 50.6213 29.8021 51.0154 30.4992C51.4245 31.1812 51.9853 31.7192 52.6975 32.1132C53.425 32.4921 54.2509 32.6815 55.1754 32.6815C55.9028 32.6815 56.5772 32.5527 57.1985 32.2951C57.835 32.0374 58.3806 31.6434 58.8352 31.113L59.7445 32.1587C59.2141 32.7952 58.5473 33.2801 57.7441 33.6136C56.956 33.947 56.0846 34.1137 55.1299 34.1137ZM69.8721 21.9519C70.842 21.9519 71.6907 22.1413 72.4181 22.5202C73.1607 22.8839 73.7366 23.4447 74.1458 24.2024C74.5701 24.9601 74.7823 25.9149 74.7823 27.0667V34H73.1683V27.2258C73.1683 25.9679 72.85 25.0208 72.2135 24.3843C71.5922 23.7326 70.7132 23.4068 69.5766 23.4068C68.7279 23.4068 67.9853 23.5811 67.3488 23.9296C66.7275 24.263 66.2425 24.7556 65.894 25.4072C65.5606 26.0437 65.3939 26.8166 65.3939 27.7259V34H63.7799V22.0656H65.3257V25.339L65.0756 24.7252C65.4545 23.8614 66.0607 23.187 66.8942 22.7021C67.7277 22.202 68.7203 21.9519 69.8721 21.9519ZM85.2341 21.9519C86.204 21.9519 87.0527 22.1413 87.7801 22.5202C88.5227 22.8839 89.0986 23.4447 89.5078 24.2024C89.9321 24.9601 90.1443 25.9149 90.1443 27.0667V34H88.5303V27.2258C88.5303 25.9679 88.2121 25.0208 87.5755 24.3843C86.9542 23.7326 86.0752 23.4068 84.9386 23.4068C84.0899 23.4068 83.3474 23.5811 82.7108 23.9296C82.0895 24.263 81.6045 24.7556 81.256 25.4072C80.9226 26.0437 80.7559 26.8166 80.7559 27.7259V34H79.1419V22.0656H80.6877V25.339L80.4376 24.7252C80.8165 23.8614 81.4227 23.187 82.2562 22.7021C83.0897 22.202 84.0824 21.9519 85.2341 21.9519ZM99.3686 34.1137C98.2168 34.1137 97.1787 33.856 96.2543 33.3408C95.345 32.8103 94.6251 32.0905 94.0947 31.1812C93.5643 30.2568 93.2991 29.2035 93.2991 28.0214C93.2991 26.8242 93.5643 25.7709 94.0947 24.8616C94.6251 23.9523 95.345 23.2401 96.2543 22.7248C97.1636 22.2095 98.2017 21.9519 99.3686 21.9519C100.551 21.9519 101.596 22.2095 102.506 22.7248C103.43 23.2401 104.15 23.9523 104.665 24.8616C105.196 25.7709 105.461 26.8242 105.461 28.0214C105.461 29.2035 105.196 30.2568 104.665 31.1812C104.15 32.0905 103.43 32.8103 102.506 33.3408C101.581 33.856 100.536 34.1137 99.3686 34.1137ZM99.3686 32.6815C100.232 32.6815 100.998 32.4921 101.665 32.1132C102.331 31.7192 102.854 31.1736 103.233 30.4765C103.627 29.7642 103.824 28.9459 103.824 28.0214C103.824 27.0818 103.627 26.2635 103.233 25.5663C102.854 24.8692 102.331 24.3312 101.665 23.9523C100.998 23.5583 100.24 23.3613 99.3913 23.3613C98.5427 23.3613 97.7849 23.5583 97.1181 23.9523C96.4513 24.3312 95.9209 24.8692 95.5269 25.5663C95.1328 26.2635 94.9358 27.0818 94.9358 28.0214C94.9358 28.9459 95.1328 29.7642 95.5269 30.4765C95.9209 31.1736 96.4513 31.7192 97.1181 32.1132C97.7849 32.4921 98.5351 32.6815 99.3686 32.6815ZM119.434 34.1364C118.252 34.1364 117.115 33.947 116.024 33.5681C114.948 33.1741 114.114 32.674 113.523 32.0678L114.183 30.772C114.743 31.3176 115.493 31.7798 116.433 32.1587C117.388 32.5224 118.388 32.7043 119.434 32.7043C120.434 32.7043 121.245 32.583 121.866 32.3405C122.503 32.0829 122.965 31.7419 123.253 31.3176C123.556 30.8933 123.707 30.4235 123.707 29.9082C123.707 29.2868 123.526 28.7867 123.162 28.4079C122.813 28.029 122.351 27.7335 121.775 27.5213C121.199 27.294 120.563 27.097 119.866 26.9303C119.169 26.7636 118.471 26.5893 117.774 26.4074C117.077 26.2104 116.433 25.9528 115.842 25.6345C115.266 25.3163 114.796 24.8995 114.433 24.3843C114.084 23.8538 113.91 23.1643 113.91 22.3156C113.91 21.5276 114.114 20.8077 114.524 20.1561C114.948 19.4893 115.592 18.9588 116.456 18.5648C117.32 18.1556 118.426 17.951 119.775 17.951C120.669 17.951 121.555 18.0799 122.434 18.3375C123.313 18.58 124.071 18.9209 124.708 19.3604L124.139 20.7016C123.457 20.247 122.73 19.9136 121.957 19.7014C121.199 19.4893 120.464 19.3832 119.752 19.3832C118.797 19.3832 118.009 19.512 117.388 19.7696C116.766 20.0272 116.304 20.3758 116.001 20.8153C115.713 21.2396 115.569 21.7246 115.569 22.2702C115.569 22.8915 115.744 23.3916 116.092 23.7705C116.456 24.1494 116.926 24.4449 117.501 24.657C118.093 24.8692 118.737 25.0587 119.434 25.2254C120.131 25.3921 120.82 25.5739 121.502 25.7709C122.199 25.9679 122.836 26.2256 123.412 26.5438C124.003 26.8469 124.473 27.2561 124.821 27.7714C125.185 28.2866 125.367 28.961 125.367 29.7945C125.367 30.5674 125.155 31.2873 124.73 31.9541C124.306 32.6058 123.654 33.1362 122.775 33.5454C121.912 33.9394 120.798 34.1364 119.434 34.1364ZM134.783 21.9519C135.753 21.9519 136.602 22.1413 137.329 22.5202C138.072 22.8839 138.648 23.4447 139.057 24.2024C139.481 24.9601 139.693 25.9149 139.693 27.0667V34H138.079V27.2258C138.079 25.9679 137.761 25.0208 137.125 24.3843C136.503 23.7326 135.624 23.4068 134.488 23.4068C133.639 23.4068 132.897 23.5811 132.26 23.9296C131.639 24.263 131.154 24.7556 130.805 25.4072C130.472 26.0437 130.305 26.8166 130.305 27.7259V34H128.691V17.1327H130.305V25.339L129.987 24.7252C130.366 23.8614 130.972 23.187 131.805 22.7021C132.639 22.202 133.632 21.9519 134.783 21.9519ZM148.918 34.1137C147.766 34.1137 146.728 33.856 145.803 33.3408C144.894 32.8103 144.174 32.0905 143.644 31.1812C143.113 30.2568 142.848 29.2035 142.848 28.0214C142.848 26.8242 143.113 25.7709 143.644 24.8616C144.174 23.9523 144.894 23.2401 145.803 22.7248C146.713 22.2095 147.751 21.9519 148.918 21.9519C150.1 21.9519 151.146 22.2095 152.055 22.7248C152.979 23.2401 153.699 23.9523 154.214 24.8616C154.745 25.7709 155.01 26.8242 155.01 28.0214C155.01 29.2035 154.745 30.2568 154.214 31.1812C153.699 32.0905 152.979 32.8103 152.055 33.3408C151.13 33.856 150.085 34.1137 148.918 34.1137ZM148.918 32.6815C149.782 32.6815 150.547 32.4921 151.214 32.1132C151.881 31.7192 152.403 31.1736 152.782 30.4765C153.176 29.7642 153.373 28.9459 153.373 28.0214C153.373 27.0818 153.176 26.2635 152.782 25.5663C152.403 24.8692 151.881 24.3312 151.214 23.9523C150.547 23.5583 149.789 23.3613 148.941 23.3613C148.092 23.3613 147.334 23.5583 146.667 23.9523C146 24.3312 145.47 24.8692 145.076 25.5663C144.682 26.2635 144.485 27.0818 144.485 28.0214C144.485 28.9459 144.682 29.7642 145.076 30.4765C145.47 31.1736 146 31.7192 146.667 32.1132C147.334 32.4921 148.084 32.6815 148.918 32.6815ZM164.466 34.1137C163.435 34.1137 162.503 33.8788 161.67 33.409C160.836 32.924 160.169 32.2345 159.669 31.3403C159.184 30.431 158.942 29.3247 158.942 28.0214C158.942 26.7181 159.184 25.6194 159.669 24.7252C160.154 23.816 160.813 23.1264 161.647 22.6566C162.48 22.1868 163.42 21.9519 164.466 21.9519C165.602 21.9519 166.618 22.2095 167.512 22.7248C168.421 23.2249 169.133 23.9372 169.649 24.8616C170.164 25.7709 170.421 26.8242 170.421 28.0214C170.421 29.2338 170.164 30.2946 169.649 31.2039C169.133 32.1132 168.421 32.8255 167.512 33.3408C166.618 33.856 165.602 34.1137 164.466 34.1137ZM158.305 38.4101V22.0656H159.851V25.6573L159.692 28.0442L159.919 30.4538V38.4101H158.305ZM164.352 32.6815C165.201 32.6815 165.958 32.4921 166.625 32.1132C167.292 31.7192 167.822 31.1736 168.216 30.4765C168.61 29.7642 168.807 28.9459 168.807 28.0214C168.807 27.097 168.61 26.2862 168.216 25.5891C167.822 24.8919 167.292 24.3464 166.625 23.9523C165.958 23.5583 165.201 23.3613 164.352 23.3613C163.503 23.3613 162.738 23.5583 162.056 23.9523C161.389 24.3464 160.859 24.8919 160.465 25.5891C160.086 26.2862 159.896 27.097 159.896 28.0214C159.896 28.9459 160.086 29.7642 160.465 30.4765C160.859 31.1736 161.389 31.7192 162.056 32.1132C162.738 32.4921 163.503 32.6815 164.352 32.6815Z" fill="white"/>
</svg>
